<?xml version="1.0" standalone="no"?>
<!DOCTYPE svg PUBLIC "-//W3C//DTD SVG 20010904//EN"
 "http://www.w3.org/TR/2001/REC-SVG-20010904/DTD/svg10.dtd">
<svg version="1.0" xmlns="http://www.w3.org/2000/svg"
 width="300.000000pt" height="300.000000pt" viewBox="0 0 300.000000 300.000000"
 preserveAspectRatio="xMidYMid meet">
<metadata>
Created by potrace 1.10, written by Peter Selinger 2001-2011
</metadata>
<g transform="translate(0.000000,300.000000) scale(0.100000,-0.100000)"
fill="#000000" stroke="none">
<path d="M470 2771 c0 -5 16 -19 36 -32 47 -29 90 -97 115 -184 33 -113 50
-143 105 -195 69 -62 122 -80 243 -80 59 -1 108 -6 126 -15 29 -13 28 -13 -37
-14 -84 -1 -106 -10 -164 -63 -45 -41 -104 -143 -104 -179 0 -8 -7 -24 -15
-35 -23 -31 -19 -47 8 -30 12 8 45 20 72 27 130 32 206 90 249 193 l28 65 91
-6 c72 -4 120 -1 222 18 325 58 726 9 987 -122 228 -114 384 -290 434 -489 40
-157 -6 -378 -107 -522 -30 -42 -21 -56 12 -18 277 323 262 695 -39 945 -228
190 -539 287 -918 286 -158 -1 -253 -12 -399 -46 -112 -27 -188 -35 -225 -25
l-25 7 34 19 c129 72 170 182 121 321 -11 32 -20 72 -20 90 0 39 -16 52 -25
21 -4 -13 -40 -57 -81 -99 -40 -42 -78 -88 -84 -103 -21 -57 -8 -141 33 -199
20 -30 18 -43 -7 -34 -26 10 -46 64 -55 149 -10 100 -34 151 -96 206 -46 40
-87 56 -180 67 -61 8 -175 38 -247 65 -57 22 -88 25 -88 11z m228 -90 c43 -10
100 -22 129 -25 69 -9 111 -28 150 -68 45 -46 73 -115 79 -195 3 -37 8 -71 11
-76 6 -10 -179 -3 -212 8 -55 19 -86 38 -118 74 -45 50 -52 63 -72 139 -8 35
-24 77 -34 95 -26 47 -32 67 -20 67 6 0 45 -9 87 -19z m589 -98 c24 -57 21
-131 -8 -183 -21 -38 -78 -90 -98 -90 -4 0 -17 20 -29 45 -32 65 -29 113 10
166 32 45 87 99 101 99 4 0 15 -17 24 -37z m-207 -374 c0 -23 -42 -100 -68
-124 -32 -30 -122 -75 -151 -75 -27 0 -27 28 -1 80 26 51 64 88 114 111 45 20
106 25 106 8z m1470 -92 c240 -129 382 -333 379 -541 -1 -45 -4 -67 -6 -51
-22 180 -108 349 -237 465 -22 19 -44 40 -50 45 -22 20 -132 90 -168 108 -21
10 -38 19 -38 22 0 7 64 -18 120 -48z"/>
<path d="M1662 1990 c-66 -16 -104 -79 -67 -110 8 -7 15 -19 15 -26 0 -8 5
-14 10 -14 14 0 13 -83 -1 -97 -8 -8 -18 -8 -35 -1 -29 14 -30 20 -4 36 27 16
26 57 -2 76 -33 23 -109 21 -136 -4 -26 -24 -28 -52 -7 -70 21 -17 19 -30 -4
-30 -27 0 -32 -12 -15 -34 13 -19 15 -19 54 -1 30 14 46 16 63 8 21 -10 20
-11 -20 -32 -47 -23 -51 -32 -27 -52 16 -13 19 -12 112 44 l34 20 -4 -39 -3
-39 42 1 c41 1 73 17 73 35 0 5 -7 9 -15 9 -12 0 -15 16 -15 83 l0 83 35 1 35
1 0 -107 0 -107 40 2 c39 2 70 17 70 35 0 5 -7 9 -15 9 -13 0 -15 14 -13 83 3
79 4 82 26 79 17 -3 22 2 22 17 0 16 -6 21 -25 21 -18 0 -25 5 -25 19 0 24
-35 68 -69 85 -37 20 -90 26 -129 16z m80 -57 c9 -10 21 -28 27 -40 11 -22 10
-23 -32 -23 -36 0 -46 4 -57 25 -11 20 -11 27 0 40 17 20 43 19 62 -2z m92
-70 c8 -19 -8 -38 -23 -29 -16 10 -13 46 3 46 8 0 17 -8 20 -17z m-321 -69
c-3 -8 -9 -14 -14 -14 -14 0 -22 27 -14 48 6 16 7 16 20 -1 8 -11 11 -25 8
-33z m157 -74 c0 -32 -14 -40 -24 -14 -5 14 8 44 20 44 2 0 4 -13 4 -30z"/>
<path d="M610 1953 c-38 -15 -194 -130 -267 -197 -423 -393 -418 -892 12
-1183 218 -147 496 -222 828 -223 324 0 636 70 912 205 147 72 190 109 52 44
-374 -174 -802 -236 -1187 -170 -512 88 -844 386 -843 756 1 250 158 510 426
704 48 35 87 65 87 67 0 4 1 5 -20 -3z m-506 -946 c42 -144 137 -272 289 -392
41 -33 74 -61 73 -63 -5 -4 -75 38 -122 74 -73 55 -125 107 -168 169 -75 105
-103 187 -107 310 -3 81 3 95 11 25 4 -36 14 -91 24 -123z"/>
<path d="M493 1683 c-40 -9 -73 -19 -73 -24 0 -5 4 -9 8 -9 4 0 44 -23 87 -51
104 -66 162 -95 205 -103 l35 -7 -22 20 c-13 10 -56 37 -95 59 -40 22 -82 49
-92 61 -19 21 -19 21 16 21 26 0 55 -15 124 -65 49 -35 96 -77 105 -92 8 -16
24 -32 35 -37 18 -8 19 -19 17 -190 l-3 -181 -32 -3 c-27 -2 -40 4 -66 31
l-33 34 23 29 c21 26 23 37 20 133 -1 73 -6 109 -16 120 -10 11 -12 21 -5 34
9 16 -1 17 -166 17 -96 0 -178 1 -182 3 -5 1 -9 -13 -11 -30 l-3 -33 175 0
176 0 0 -122 0 -123 -31 55 c-16 30 -34 59 -39 64 -19 19 -10 24 25 16 l35 -8
0 39 0 39 -66 0 c-95 0 -150 -17 -195 -60 -34 -32 -39 -43 -39 -82 0 -92 81
-158 193 -158 32 0 71 7 87 15 l30 16 0 -36 0 -35 73 0 c70 0 74 1 107 35 l34
35 -32 0 -32 0 0 155 0 155 240 0 240 0 0 -25 c0 -18 -5 -25 -19 -25 -10 0
-29 -8 -42 -19 -23 -18 -24 -18 -49 0 -41 31 -120 36 -172 10 -69 -33 -93 -73
-93 -153 0 -108 51 -160 165 -166 l70 -4 0 34 c0 29 -4 36 -33 46 -19 7 -39
23 -45 38 -15 31 -5 102 16 127 30 34 104 13 82 -23 -21 -32 -12 -46 30 -45
36 0 40 3 46 30 21 100 104 78 104 -28 0 -58 -28 -92 -84 -102 -33 -7 -36 -10
-36 -43 l0 -35 61 7 c77 8 134 33 179 80 32 34 35 42 35 96 0 50 -4 63 -32 98
-21 26 -33 52 -33 71 0 31 0 31 55 31 54 0 55 0 55 30 l0 29 -72 3 -73 3 40
19 c22 10 36 20 30 21 -5 2 -22 6 -36 9 -14 3 -76 42 -138 86 l-113 81 -84
-17 c-46 -9 -84 -21 -84 -25 0 -5 3 -9 8 -9 4 0 54 -29 111 -65 108 -67 180
-100 203 -93 13 5 -2 15 -141 100 -34 20 -61 41 -61 46 0 21 41 19 72 -2 96
-65 178 -129 178 -139 0 -6 10 -21 22 -34 17 -18 19 -26 10 -35 -20 -20 -14
-81 12 -119 48 -70 46 -120 -5 -168 -28 -27 -89 -57 -89 -45 0 3 9 18 19 33
44 61 34 163 -19 202 -23 18 -28 27 -23 49 3 15 0 37 -6 48 -10 18 -8 23 11
34 19 11 -25 14 -277 18 l-300 5 40 19 c22 10 36 20 30 21 -5 2 -22 6 -36 9
-14 3 -76 42 -137 86 -62 44 -118 79 -125 79 -6 -1 -45 -8 -84 -16z m131 -358
c-4 -8 -17 -15 -29 -15 -29 0 -65 -44 -65 -79 0 -15 9 -44 20 -66 11 -21 18
-41 15 -43 -9 -10 -67 22 -90 50 -62 73 5 164 122 167 25 1 31 -2 27 -14z
m508 9 c4 -3 -5 -22 -18 -41 -31 -46 -33 -124 -5 -167 11 -17 18 -33 16 -37
-10 -15 -57 6 -85 38 -27 30 -31 42 -29 85 3 57 22 87 71 111 37 18 42 20 50
11z m-495 -118 c33 -52 38 -66 26 -70 -30 -12 -52 -5 -72 20 -28 36 -29 114
-1 114 3 0 25 -29 47 -64z"/>
<path d="M1790 1521 c-47 -10 -74 -25 -99 -57 -27 -35 -26 -59 3 -89 l24 -24
-54 -11 c-58 -12 -60 -15 -42 -55 14 -30 10 -30 84 -5 56 20 104 20 104 0 0
-5 -9 -11 -20 -15 -54 -17 -77 -100 -40 -147 52 -67 150 -75 271 -24 13 6 15
1 11 -24 l-4 -30 78 0 c78 0 79 0 107 35 l28 35 -28 0 -28 0 3 155 3 155 127
0 c144 0 176 -11 170 -57 -5 -45 -47 -66 -143 -71 l-85 -5 0 -31 c0 -23 6 -34
22 -41 12 -6 46 -39 75 -75 70 -87 96 -100 205 -100 l88 0 0 34 c0 31 -2 34
-41 40 -32 5 -54 19 -98 61 l-56 55 30 0 c44 1 107 32 138 69 28 34 34 69 17
102 -10 17 -7 19 20 19 27 0 30 3 30 33 l0 32 -345 -3 -345 -3 0 -29 c0 -20 5
-30 15 -30 13 0 15 -20 15 -121 l0 -120 -44 -20 c-35 -15 -50 -17 -71 -9 -52
20 -8 70 63 70 31 0 32 2 32 40 0 38 -2 40 -30 40 -32 0 -80 19 -80 31 0 4 9
10 20 14 30 10 60 54 60 90 0 69 -84 107 -190 86z m30 -50 c0 -6 -4 -13 -10
-16 -17 -10 -11 -51 9 -69 38 -35 105 19 81 64 -15 28 -9 33 18 14 29 -20 28
-45 -4 -75 -46 -43 -47 -54 -13 -93 l30 -35 -35 -32 c-41 -35 -46 -67 -16 -94
31 -28 24 -38 -21 -32 -75 10 -113 72 -68 113 12 10 27 31 35 46 12 23 12 29
-2 42 -23 23 -53 38 -64 31 -10 -6 -40 57 -40 85 0 10 12 28 26 39 27 21 74
29 74 12z m56 -33 c7 -10 -20 -38 -38 -38 -4 0 -8 11 -8 25 0 18 5 25 19 25
11 0 23 -5 27 -12z m277 -175 l-2 -178 -33 -3 c-24 -2 -42 4 -62 22 l-29 24
23 31 c20 30 22 40 19 156 l-4 125 45 0 45 0 -2 -177z m460 130 c-7 -67 -24
-88 -90 -113 -32 -12 -63 -26 -70 -32 -24 -20 -13 -49 37 -102 28 -29 50 -56
50 -59 0 -12 -50 -7 -79 7 -15 8 -54 45 -85 82 l-58 68 72 12 c77 13 109 34
130 84 9 23 9 34 -4 58 -9 17 -16 33 -16 37 0 3 26 5 59 5 l59 0 -5 -47z"/>
<path d="M443 938 c-23 -11 -38 -68 -21 -79 6 -4 8 -31 7 -60 -4 -50 -2 -54
19 -57 24 -4 25 -2 22 71 -1 44 0 47 24 47 32 0 33 -16 4 -40 -19 -15 -20 -20
-9 -34 19 -22 52 -20 58 4 3 11 12 20 20 20 11 0 12 -8 7 -36 -6 -33 -5 -36
17 -32 23 3 24 6 21 61 l-4 57 96 0 96 0 0 -40 c0 -22 -5 -40 -10 -40 -17 0
-23 29 -10 45 17 20 4 32 -19 18 -19 -12 -33 -12 -65 2 -21 9 -44 -2 -60 -28
-15 -23 12 -71 42 -75 26 -4 29 15 6 33 -18 12 -12 55 8 55 5 0 8 -7 5 -15 -7
-18 13 -32 22 -16 5 7 12 3 19 -14 8 -17 20 -25 37 -25 14 0 25 -4 25 -10 0
-13 25 -13 53 2 12 6 29 14 37 18 19 9 25 54 8 67 -7 6 -24 13 -38 16 -16 3
-10 5 18 6 29 1 42 5 42 15 0 12 -27 15 -161 14 -140 -1 -163 2 -171 16 -22
39 -98 57 -145 34z m98 -28 c33 -18 21 -30 -31 -30 -35 0 -50 4 -50 13 0 8 3
17 7 20 10 10 52 8 74 -3z m324 -90 c8 -13 -4 -50 -16 -50 -5 0 -9 14 -9 30 0
30 13 40 25 20z"/>
<path d="M1052 941 c-11 -6 -7 -13 14 -30 33 -26 65 -27 95 -2 20 16 22 22 11
33 -11 11 -16 9 -31 -11 -20 -26 -51 -24 -51 4 0 16 -17 19 -38 6z"/>
<path d="M1364 938 c-22 -10 -42 -70 -26 -76 4 -1 6 -29 4 -62 -4 -59 -4 -60
21 -60 14 0 27 7 31 15 3 8 1 15 -4 15 -6 0 -10 20 -10 45 0 43 1 45 30 45 20
0 30 -5 30 -15 0 -8 -6 -15 -14 -15 -17 0 -28 -24 -20 -45 9 -23 55 -19 61 5
9 33 23 23 23 -16 0 -31 3 -35 23 -32 20 3 22 7 19 61 l-4 57 96 0 96 0 0 -40
c0 -22 -5 -40 -10 -40 -17 0 -23 29 -10 45 16 19 6 30 -17 19 -26 -11 -53 -13
-59 -3 -8 14 -41 10 -58 -7 -32 -31 -7 -94 37 -94 21 0 22 26 1 34 -9 3 -14
15 -12 26 3 21 22 28 24 10 3 -22 4 -24 16 -12 9 9 14 6 22 -11 7 -13 23 -23
39 -25 15 -2 27 -8 27 -13 0 -12 26 -11 53 3 12 6 29 14 37 18 8 4 15 20 15
36 0 24 -6 31 -35 41 l-35 12 43 0 c30 1 42 5 42 15 0 12 -27 15 -161 14 -140
-1 -163 2 -171 16 -22 39 -98 57 -144 34z m102 -35 c17 -17 16 -18 -30 -21
-53 -4 -61 0 -53 23 9 21 61 19 83 -2z m321 -89 c3 -8 -2 -23 -11 -32 -15 -15
-16 -14 -16 16 0 33 16 43 27 16z"/>
<path d="M2000 940 c-13 -9 -12 -13 9 -30 29 -25 62 -25 92 -1 20 16 22 22 11
33 -11 11 -16 9 -33 -12 l-19 -25 -19 23 c-22 25 -21 25 -41 12z"/>
<path d="M1004 880 c-32 -13 -39 -40 -10 -40 14 0 26 6 29 13 3 9 7 9 17 0 9
-9 7 -14 -11 -23 l-22 -12 23 -18 c17 -13 20 -19 9 -25 -7 -5 -14 -4 -17 3 -4
14 -52 17 -52 4 0 -5 9 -17 19 -26 26 -24 73 -17 86 12 5 12 13 22 18 22 5 0
7 -10 5 -22 -2 -17 3 -24 19 -26 20 -3 21 0 16 57 l-6 61 49 -1 c41 -1 44 -2
19 -8 -21 -4 -30 -12 -30 -26 0 -14 9 -21 30 -25 17 -3 30 -11 30 -19 0 -21
-24 -26 -31 -7 -6 17 -44 23 -44 7 0 -33 61 -52 101 -31 35 19 13 79 -24 64
-8 -3 -18 -1 -22 5 -4 7 5 11 24 11 21 0 31 5 31 15 0 8 5 15 10 15 6 0 10 7
10 16 0 13 -8 15 -42 10 -24 -3 -66 -5 -95 -5 l-52 -1 6 -35 c4 -27 2 -35 -9
-35 -10 0 -13 8 -10 30 4 25 0 31 -23 40 -14 5 -27 10 -28 9 -1 0 -11 -4 -23
-9z"/>
<path d="M1882 876 c-3 -6 0 -12 6 -14 7 -2 12 -17 12 -33 0 -17 5 -39 10 -50
8 -15 7 -19 -5 -19 -8 0 -15 -7 -15 -15 0 -19 4 -19 42 1 23 12 32 13 38 4 4
-7 16 -10 26 -8 16 3 19 11 16 61 -3 48 -1 57 13 57 14 0 16 -9 14 -57 -3 -52
-1 -58 18 -61 11 -2 23 4 26 12 4 9 2 16 -3 16 -6 0 -10 20 -10 45 l0 45 48
-1 c39 -1 42 -2 17 -8 -39 -8 -43 -44 -5 -49 33 -5 47 -19 33 -33 -7 -7 -15
-6 -26 5 -17 17 -47 22 -47 8 0 -18 38 -42 66 -42 36 0 54 16 54 47 0 19 -5
23 -29 23 -17 0 -33 5 -36 10 -4 6 7 10 24 10 21 0 31 5 31 15 0 11 12 15 45
15 45 0 45 0 45 -34 0 -19 -5 -38 -10 -41 -16 -10 -24 23 -10 40 18 22 5 30
-25 17 -41 -19 -25 -82 20 -82 14 0 25 -5 25 -11 0 -6 10 -9 23 -7 19 3 22 8
19 46 -3 33 0 42 12 42 22 0 20 17 -1 23 -10 3 7 5 37 5 30 0 46 -3 35 -5 -29
-7 -55 -33 -55 -55 0 -10 10 -28 22 -40 13 -13 21 -29 20 -37 -2 -7 2 -11 10
-8 7 2 21 -2 30 -10 9 -8 22 -12 29 -8 8 6 5 13 -12 26 l-23 17 24 20 c23 19
24 21 7 28 -10 3 -23 2 -30 -5 -15 -15 -24 -14 -31 5 -9 22 11 44 40 44 17 0
22 4 18 15 -5 12 2 15 29 15 46 0 56 -16 20 -32 -15 -7 -29 -13 -31 -14 -10
-5 37 -66 55 -70 39 -10 48 6 17 31 l-28 22 22 12 c12 6 22 21 22 31 0 11 7
20 15 20 8 0 15 -9 15 -20 0 -11 -7 -20 -15 -20 -8 0 -15 -7 -15 -15 0 -8 7
-15 15 -15 9 0 14 -8 12 -22 -2 -27 37 -39 46 -14 4 9 3 16 -2 16 -4 0 -9 20
-9 45 -1 25 2 45 8 45 5 0 10 6 10 14 0 12 -57 14 -381 13 -225 -1 -383 -6
-387 -11z m88 -57 c0 -52 -24 -48 -28 4 -2 28 1 37 12 37 12 0 16 -11 16 -41z"/>
</g>
</svg>
